<mxfile host="app.diagrams.net" modified="2021-06-20T10:51:33.582Z" agent="5.0 (Windows NT 6.1; Win64; x64) AppleWebKit/537.36 (KHTML, like Gecko) Chrome/91.0.4442.4 Safari/537.36" etag="1dBH94YHkN7FOJ8QmKj4" version="14.8.0" type="github">
  <diagram id="HBYsAD66yYWTuG-JPv4X" name="Page-1">
    <mxGraphModel dx="782" dy="477" grid="1" gridSize="10" guides="1" tooltips="1" connect="1" arrows="1" fold="1" page="1" pageScale="1" pageWidth="827" pageHeight="1169" math="0" shadow="0">
      <root>
        <mxCell id="0" />
        <mxCell id="1" parent="0" />
        <mxCell id="8BGRDWjf6FzEl5jAv6Ml-1" value="Text" style="text;html=1;align=center;verticalAlign=middle;resizable=0;points=[];autosize=1;strokeColor=none;" vertex="1" parent="1">
          <mxGeometry x="170" y="150" width="40" height="20" as="geometry" />
        </mxCell>
      </root>
    </mxGraphModel>
  </diagram>
</mxfile>
